<svg xmlns="http://www.w3.org/2000/svg" viewBox="0 0 65.54 60"><defs><style>.cls-1{isolation:isolate;}.cls-2{fill:#0049a0;}.cls-2,.cls-3,.cls-5{mix-blend-mode:multiply;}.cls-3{fill:#6587c0;}.cls-4{fill:#5d88c3;}</style></defs><title>bxb_vertical_rgb_60px</title><g class="cls-1"><g id="Layer_1" data-name="Layer 1"><path class="cls-2" d="M201.5,287.8a3.35,3.35,0,0,0-.33-.11,10.66,10.66,0,0,1-3.26-1.32,7.09,7.09,0,0,1-3-9.1,8,8,0,0,1,3.94-3.9,19.24,19.24,0,0,1,8.06-1.83,36.5,36.5,0,0,1,6.56.3,22.29,22.29,0,0,1,5.28,1.29c.77.31.65.19.65,1q0,14.69,0,29.38c0,.1,0,.2,0,.3a.45.45,0,0,1-.35.53c-.45.15-.88.34-1.33.48a27.42,27.42,0,0,1-6.6,1.14,34.72,34.72,0,0,1-9.26-.44,14.55,14.55,0,0,1-5.56-2.29,7.94,7.94,0,0,1-.6-12.42,13,13,0,0,1,5.39-2.76l.43-.12Zm11,1.76c-2.78-.1-5.56-.24-8.26.66a5.5,5.5,0,0,0-3.35,2.6,7,7,0,0,0-.35,5.92,5.13,5.13,0,0,0,3.62,3,14.46,14.46,0,0,0,5.46.44c.87-.07,1.72-.3,2.58-.45a.45.45,0,0,0,.41-.52c0-3.78,0-7.55,0-11.33a2,2,0,0,0,0-.31Zm.11-3.64q0-4.9,0-9.8c0-.56,0-.56-.55-.7a14.5,14.5,0,0,0-6.55-.17c-3.36.71-4.61,2.93-4.37,6.06a7.07,7.07,0,0,0,.2,1.19,4.52,4.52,0,0,0,2.6,3.09,10.48,10.48,0,0,0,3.41.85,34.86,34.86,0,0,0,5.23,0C212.63,286.28,212.65,286.09,212.65,285.91Z" transform="translate(-192.98 -271.5)"/><path class="cls-2" d="M250,287.9l.43.12a13,13,0,0,1,5.39,2.76,7.94,7.94,0,0,1-.6,12.42,14.55,14.55,0,0,1-5.56,2.29,34.72,34.72,0,0,1-9.26.44,27.42,27.42,0,0,1-6.6-1.14c-.45-.14-.88-.33-1.33-.48a.45.45,0,0,1-.35-.53c0-.1,0-.2,0-.3q0-14.69,0-29.38c0-.79-.12-.67.65-1a22.29,22.29,0,0,1,5.28-1.29,36.5,36.5,0,0,1,6.56-.3,19.24,19.24,0,0,1,8.06,1.83,8,8,0,0,1,3.94,3.9,7.09,7.09,0,0,1-3,9.1,10.66,10.66,0,0,1-3.26,1.32,3.35,3.35,0,0,0-.33.11Zm-11.09,1.71a2,2,0,0,0,0,.31c0,3.78,0,7.55,0,11.33a.45.45,0,0,0,.41.52c.86.15,1.71.38,2.58.45a14.46,14.46,0,0,0,5.46-.44,5.13,5.13,0,0,0,3.62-3,7,7,0,0,0-.35-5.92,5.5,5.5,0,0,0-3.35-2.6c-2.69-.91-5.48-.76-8.26-.66Zm0-3.13a34.86,34.86,0,0,0,5.23,0,10.48,10.48,0,0,0,3.41-.85,4.52,4.52,0,0,0,2.6-3.09,7.07,7.07,0,0,0,.2-1.19c.24-3.13-1-5.35-4.37-6.06a14.5,14.5,0,0,0-6.55.17c-.55.14-.55.14-.55.7q0,4.9,0,9.8C238.85,286.09,238.87,286.28,238.88,286.48Z" transform="translate(-192.98 -271.5)"/><path class="cls-3" d="M232.1,292.91,229,288.23l3.06-4.68,6.67-10.2h0l1.13-1.72c-.62.05-1.24.12-1.86.2a22.29,22.29,0,0,0-5.28,1.29,2,2,0,0,0-.59.27l0,.06-6.39,9.75-6.36-9.72-.07-.11a2.55,2.55,0,0,0-.56-.25,22.29,22.29,0,0,0-5.28-1.29c-.62-.09-1.25-.15-1.87-.21l1.13,1.72h0l6.68,10.21,3.06,4.67-3.05,4.66-8.55,13,.28,0a27.42,27.42,0,0,0,6.6-1.14c.45-.14.88-.33,1.33-.48l.11,0,.24-.41,6.35-10.59,6.35,10.6.23.38.12.05c.45.15.88.34,1.33.48a27.42,27.42,0,0,0,6.6,1.14l.27,0Z" transform="translate(-192.98 -271.5)"/><path class="cls-4" d="M198.92,325.39l.88,2.5H198Zm-.17-.55-1.87,4.9h.49l.52-1.48h2.05l.53,1.48h.47l-1.82-4.9Z" transform="translate(-192.98 -271.5)"/><path class="cls-4" d="M203.6,329.32h1.72a.88.88,0,0,0,.95-.94,1,1,0,0,0-.72-1,2.52,2.52,0,0,0-.68-.07H203.6Zm0-2.4h1.28a1.37,1.37,0,0,0,1-.22.84.84,0,0,0,.26-.64.76.76,0,0,0-.27-.61,1.33,1.33,0,0,0-.87-.19H203.6Zm1.46-2.08a1.54,1.54,0,0,1,1.13.33,1.22,1.22,0,0,1,.36.9,1,1,0,0,1-.78,1h0a1.17,1.17,0,0,1,.92,1.24,1.27,1.27,0,0,1-1.07,1.35,7,7,0,0,1-1.11,0h-1.36v-4.9Z" transform="translate(-192.98 -271.5)"/><path class="cls-4" d="M207.77,329.74h-.38v-3.31h.38V327a.91.91,0,0,1,.9-.58l.21,0v.37a.89.89,0,0,0-.23,0,.82.82,0,0,0-.64.27c-.24.28-.24.62-.25,1.3Z" transform="translate(-192.98 -271.5)"/><path class="cls-4" d="M211.24,328l-.19,0-.77.22c-.35.1-.74.23-.74.64a.55.55,0,0,0,.62.55,1.2,1.2,0,0,0,.82-.36,1.13,1.13,0,0,0,.26-.85Zm.83,1.75c-.47,0-.8,0-.83-.55v-.06l0,.07a1.15,1.15,0,0,1-1.08.61.89.89,0,0,1-1-.9c0-.77.73-.95,1.71-1.19l.37-.09v-.17c0-.24,0-.76-.75-.76s-.8.46-.81.81l-.42-.08a1.41,1.41,0,0,1,.18-.57,1.13,1.13,0,0,1,1-.51,1,1,0,0,1,1.09.65,2.69,2.69,0,0,1,0,.64v1.07c0,.58,0,.72.47.71Z" transform="translate(-192.98 -271.5)"/><path class="cls-4" d="M216.56,329.74h-.38V328c0-.62,0-.81-.11-1a.55.55,0,0,0-.48-.24c-.61,0-.78.65-.8.79a4.38,4.38,0,0,0,0,.85v1.38h-.38v-1.83a5.66,5.66,0,0,0,0-.62.56.56,0,0,0-.58-.55.76.76,0,0,0-.68.44,2.68,2.68,0,0,0-.16,1.24v1.33h-.38v-3.31h.38v.68a.89.89,0,0,1,.92-.76.82.82,0,0,1,.86.83,1.19,1.19,0,0,1,.16-.4.91.91,0,0,1,.8-.43.85.85,0,0,1,.71.31c.19.27.19.63.2,1.44Z" transform="translate(-192.98 -271.5)"/><path class="cls-4" d="M218.74,326.73a.89.89,0,0,0-.39.1,1.36,1.36,0,0,0-.5,1.24c0,.9.33,1.38.92,1.38s.9-.68.91-1.3c0-.87-.34-1.42-.93-1.42m-.89,3h-.37v-4.9h.37V327a1,1,0,0,1,.95-.64c.83,0,1.28.83,1.28,1.79,0,.77-.3,1.67-1.27,1.67a1,1,0,0,1-1-.67Z" transform="translate(-192.98 -271.5)"/><rect class="cls-4" x="27.81" y="53.34" width="0.38" height="4.9"/><path class="cls-4" d="M224.27,327.76a1.28,1.28,0,0,0-.32-.79.91.91,0,0,0-.64-.25,1,1,0,0,0-1,1Zm.43,1.11a1.75,1.75,0,0,1-.29.5,1.3,1.3,0,0,1-1.06.46c-1,0-1.47-.84-1.47-1.76a1.44,1.44,0,1,1,2.82,0h-2.4a1.87,1.87,0,0,0,.1.69,1,1,0,0,0,1,.68,1,1,0,0,0,1-.69Z" transform="translate(-192.98 -271.5)"/><path class="cls-4" d="M226.67,327.88a1.2,1.2,0,0,1,.66.35.9.9,0,0,1,.21.58,1,1,0,0,1-1.16,1,1.28,1.28,0,0,1-.78-.24,1.35,1.35,0,0,1-.47-.65l.38-.14a.86.86,0,0,0,.87.66c.53,0,.79-.3.79-.65s-.41-.53-.66-.59l-.37-.08c-.29-.07-.81-.21-.81-.86,0-.34.18-.92,1.11-.92a1.31,1.31,0,0,1,.72.19.91.91,0,0,1,.38.56l-.37.1a.53.53,0,0,0-.27-.38.91.91,0,0,0-.49-.12c-.23,0-.71.06-.71.56s.3.45.65.54Z" transform="translate(-192.98 -271.5)"/><path class="cls-4" d="M233.54,328.67a1.69,1.69,0,0,1-1.7,1.19,1.8,1.8,0,0,1-1.46-.65,3.11,3.11,0,0,1-.53-1.89c0-1,.35-2.61,2-2.61a1.74,1.74,0,0,1,1.77,1.27l-.43.24a1.54,1.54,0,0,0-.49-.85,1.31,1.31,0,0,0-.83-.25,1.23,1.23,0,0,0-1.13.58,2.73,2.73,0,0,0-.4,1.56,3.1,3.1,0,0,0,.38,1.62,1.38,1.38,0,0,0,1.21.58,1.14,1.14,0,0,0,.72-.21,1.53,1.53,0,0,0,.53-.83Z" transform="translate(-192.98 -271.5)"/><path class="cls-4" d="M235.48,326.7a.9.9,0,0,0-.71.34,1.8,1.8,0,0,0-.29,1.1c0,.95.46,1.33,1,1.33.68,0,1-.58,1-1.35,0-.19,0-1.42-1-1.42m0,3.13c-.9,0-1.4-.76-1.4-1.69s.41-1.78,1.41-1.78,1.39.86,1.4,1.72c0,1-.54,1.76-1.41,1.76" transform="translate(-192.98 -271.5)"/><path class="cls-4" d="M241.61,329.74h-.38V328c0-.62,0-.81-.11-1a.55.55,0,0,0-.48-.24c-.61,0-.78.65-.81.79a4.41,4.41,0,0,0,0,.85v1.38h-.38v-1.83c0-.35,0-.48,0-.62a.56.56,0,0,0-.58-.55.75.75,0,0,0-.68.44,2.69,2.69,0,0,0-.15,1.24v1.33h-.38v-3.31H238v.68a.89.89,0,0,1,.91-.76.82.82,0,0,1,.86.83,1.23,1.23,0,0,1,.16-.4.91.91,0,0,1,.81-.43.85.85,0,0,1,.71.31c.19.27.19.63.2,1.44Z" transform="translate(-192.98 -271.5)"/><path class="cls-4" d="M243,328.71a.83.83,0,0,0,.82.72c.75,0,1-.84,1-1.38,0-.72-.31-1.31-1-1.31-.84,0-.86,1-.87,1.3a2.46,2.46,0,0,0,0,.67m-.42-2.28h.38V327a.88.88,0,0,1,.19-.31,1,1,0,0,1,.75-.3c1,0,1.29,1,1.29,1.74,0,.9-.45,1.72-1.28,1.72a1,1,0,0,1-.94-.63v2.31h-.38Z" transform="translate(-192.98 -271.5)"/><path class="cls-4" d="M247.72,328l-.2,0-.77.22c-.35.1-.74.23-.74.64a.55.55,0,0,0,.62.55,1.2,1.2,0,0,0,.82-.36,1.13,1.13,0,0,0,.26-.85Zm.83,1.75c-.47,0-.8,0-.83-.55v-.06l0,.07a1.15,1.15,0,0,1-1.08.61.89.89,0,0,1-1-.9c0-.77.73-.95,1.71-1.19l.37-.09v-.17c0-.24,0-.76-.75-.76s-.81.46-.81.81l-.42-.08a1.41,1.41,0,0,1,.18-.57,1.13,1.13,0,0,1,1-.51A1,1,0,0,1,248,327a2.69,2.69,0,0,1,0,.64v1.07c0,.58,0,.72.47.71Z" transform="translate(-192.98 -271.5)"/><path class="cls-4" d="M251.42,329.74H251V328c0-.65,0-.83-.12-1a.69.69,0,0,0-.6-.29.81.81,0,0,0-.72.38c-.19.28-.19.49-.19,1.19v1.45H249v-3.31h.38V327a1,1,0,0,1,1-.67,1,1,0,0,1,.84.4c.2.28.21.56.21,1.27Z" transform="translate(-192.98 -271.5)"/><path class="cls-4" d="M254.62,326.43l-1.4,3.79c-.23.62-.26.69-.32.82a.6.6,0,0,1-.57.37.68.68,0,0,1-.42-.13v-.42a.68.68,0,0,0,.4.17c.19,0,.27-.1.38-.4l.16-.42.16-.48L252,326.43h.37l.9,2.82,1-2.82Z" transform="translate(-192.98 -271.5)"/><g class="cls-5"><path class="cls-2" d="M197,310.3h2.72a9,9,0,0,1,3.91.65,5.1,5.1,0,0,1,2.11,2.12,7.44,7.44,0,0,1,.36,6,5.32,5.32,0,0,1-1.28,1.94,4.51,4.51,0,0,1-1.77,1.07,12.62,12.62,0,0,1-3.3.3H197Zm2.28,2.22v7.62h1.07a5.34,5.34,0,0,0,2.29-.36,2.74,2.74,0,0,0,1.16-1.22,4.46,4.46,0,0,0,.45-2.1,4,4,0,0,0-1.08-3,4.31,4.31,0,0,0-3.11-1Z" transform="translate(-192.98 -271.5)"/><path class="cls-2" d="M208,310.3h2.28v12.08H208Z" transform="translate(-192.98 -271.5)"/><path class="cls-2" d="M223.44,312.19l-1.62,1.6a4.79,4.79,0,0,0-3.58-1.63,4.09,4.09,0,0,0-3,1.18,3.88,3.88,0,0,0-1.2,2.87,4,4,0,0,0,1.25,3,4.25,4.25,0,0,0,3.08,1.21,3.78,3.78,0,0,0,2-.5,3.53,3.53,0,0,0,1.32-1.57h-3.5v-2.16h6.08l0,.51a5.91,5.91,0,0,1-.82,3,5.73,5.73,0,0,1-2.13,2.17,6.06,6.06,0,0,1-3.06.75,6.81,6.81,0,0,1-3.35-.82,6,6,0,0,1-2.33-2.33,6.49,6.49,0,0,1-.86-3.26,6.06,6.06,0,0,1,1.58-4.17,6.25,6.25,0,0,1,4.89-2.11,7.45,7.45,0,0,1,2.95.58A6.75,6.75,0,0,1,223.44,312.19Z" transform="translate(-192.98 -271.5)"/><path class="cls-2" d="M225.68,310.3H228v12.08h-2.28Z" transform="translate(-192.98 -271.5)"/><path class="cls-2" d="M229.51,310.3h6.68v2.27H234v9.81h-2.33v-9.81h-2.14Z" transform="translate(-192.98 -271.5)"/><path class="cls-2" d="M240.66,310.3H243l4.64,12.08h-2.39l-.95-2.49h-4.93l-1,2.49H236Zm1.18,3.2-1.62,4.15h3.23Z" transform="translate(-192.98 -271.5)"/><path class="cls-2" d="M249.14,310.3h2.3v9.88h3.35v2.19h-5.65Z" transform="translate(-192.98 -271.5)"/></g></g></g></svg>